<svg width="55" height="29" viewBox="0 0 55 29" fill="none" xmlns="http://www.w3.org/2000/svg">
<path d="M3.77318 27.5396C7.45713 26.5185 9.47734 24.3423 10.9834 21.8055C13.0971 18.2453 14.2373 15.8491 15.6054 13.1988C16.9365 10.3669 17.4675 9.81931 17.9482 9.23841M17.0105 7.86182C17.7542 8.79122 17.9539 9.2642 18.2662 9.82235C18.3374 9.93514 18.4051 10.0439 18.47 10.1491M29.7301 24.9619C28.399 21.767 32.0226 22.4931 24.3317 16.3211C19.9376 12.9041 19.7209 12.1777 18.47 10.1491M29.2494 20.0606C30.3217 21.0409 29.7301 22.0211 31.3201 22.3116M10.5397 23.5097C17.0105 20.9683 19.5248 18.3905 23.1115 15.8491M16.8995 10.6932C17.8491 10.4143 18.0773 10.2911 18.47 10.1491M1 16.9383C9.24558 6.37328 15.3466 1.5809 18.7483 1M19.5988 1C21.1887 1.72612 22.1131 2.8153 25.4779 8.66056C28.1396 13.1141 30.0432 16.3141 32.1705 18.7639M41.5993 26.7772C41.9321 26.6683 42.0291 26.5166 42.117 26.1237C38.4934 24.9982 37.3101 22.8925 34.6109 21.1498C33.7373 20.4366 32.9393 19.6492 32.1705 18.7639M40.2682 25.8696C41.0447 26.1237 41.3405 26.2326 41.7472 27.0314C41.7144 27.1426 41.6852 27.2007 41.4884 27.2492M39.8984 26.0874C40.1203 26.1963 40.3421 26.2689 40.6379 26.3415C41.3534 27.0157 41.2296 26.9224 41.4514 27.104C41.5623 27.3581 41.4094 27.467 41.0027 27.5396M39.5287 26.4142C39.7032 26.4855 39.8892 26.5612 40.1203 26.632C40.3791 26.7113 40.3052 26.8135 41.0077 27.3944C41.0437 27.6607 40.8598 27.8664 40.4698 27.8252M30.2848 25.4702L34.2781 26.3052C35.0427 26.4316 35.2765 26.5957 35.942 27.0314C37.1253 27.939 37.9387 27.8301 38.8261 27.7938C40.3606 28.2319 40.601 27.9027 40.527 27.4506C40.1942 27.3218 39.9167 27.2725 39.7505 27.1965C39.4351 27.0584 39.3478 26.9733 39.1589 26.7772M25.7737 8.07966C28.8797 7.42615 28.5099 7.53507 32.5033 11.1657C35.978 14.6672 37.9238 16.6374 41.5623 19.6613C45.075 22.5805 43.9668 21.0267 47.9222 23.3282C50.9172 25.0708 51.3239 24.0906 52.0811 24.5407M51.5088 24.5989C52.7153 24.436 52.9139 24.5989 53.3092 24.9371M51.4349 24.853C51.6952 24.9049 51.8412 24.9321 52.1004 24.9256C52.5136 24.8556 52.6496 24.8896 52.8769 24.9619C53.3576 24.9982 53.5055 24.853 53.8752 24.7441C54.282 25.6154 53.6534 26.16 52.5811 26.1963C51.6926 26.1868 51.4612 26.3235 51.1021 26.5957C50.4735 27.0721 49.7167 26.9831 48.7726 26.5594C47.3955 26.0115 46.8114 26.095 45.9994 26.3779C43.7069 27.1766 42.7086 27.1403 42.117 25.325C41.9923 24.6312 41.564 24.0206 40.8968 23.4418C38.3455 21.0409 36.0899 20.8957 32.1705 18.7639" stroke="#28282B" stroke-width="0.5"/>
</svg>
