<svg width="34" height="45" viewBox="0 0 34 45" fill="none" xmlns="http://www.w3.org/2000/svg">
<path d="M14.1985 37.1653C14.1258 32.6899 18.0037 31.4734 20.6028 31.9359C22.9267 32.3494 24.6938 32.5196 26.0736 32.6656C29.9225 33.1277 29.8983 30.0873 29.8015 29.3333C29.7583 28.9967 29.7542 28.6705 29.7711 28.3604C29.8197 27.4696 30.8424 27.5334 30.9268 26.3903C30.9493 26.1775 30.8346 25.9562 30.4793 25.7035C30.2788 25.5691 29.8366 25.5365 29.0027 25.6363C32.1012 24.2742 32.1026 23.4715 31.3265 22.6932C30.6256 21.9902 30.7214 21.3554 31.7139 20.869C33.6989 19.8961 33.015 19.4861 32.1254 18.5097C31.2167 17.5421 30.5099 16.7297 29.9849 15.9801C29.947 15.9319 29.91 15.8841 29.8741 15.8366M26.8724 4.53388C28.3491 6.52835 29.2689 8.75622 28.9058 11.1885C28.7712 11.9663 28.7062 12.6292 28.7672 13.2559C28.9364 13.2884 29.0951 13.314 29.2447 13.3329M18.642 44C18.1843 43.4093 17.7616 42.8256 17.3734 42.2488C16.8114 41.5231 16.3205 40.8186 15.8954 40.1327C12.5661 35.8762 13.3407 31.717 15.1654 26.9254C15.3969 26.4207 15.6536 25.9292 15.9309 25.4507M25.6621 2.60254C26.6304 10.7264 24.2339 15.9801 18.5452 21.8419C17.5858 22.9502 16.6829 24.1525 15.9309 25.4507M26.0736 2.7728C27.3393 5.15644 29.6563 11.1155 25.4602 17.0017C24.5583 18.2668 23.2173 19.4675 21.5711 20.7468C20.6217 21.64 19.5378 22.5571 18.3031 23.4959C17.7706 23.9093 16.536 24.6147 15.9309 25.4507M28.7122 3.84301C30.1087 6.26344 30.8632 9.31627 30.6217 12.3549M29.8741 15.8366C29.3529 15.1481 29.042 14.5345 28.8819 13.9127C29.5479 13.8744 30.052 13.7966 30.454 13.6666M29.8741 15.8366C30.1324 15.1258 30.324 14.3993 30.454 13.6666M21.5711 0.94859C22.2005 7.44279 20.6997 12.1128 16.4876 17.6584C14.474 20.3096 2.06018 27.6064 6.19666 36.0464C7.16583 38.0239 8.8584 39.7558 11.3315 41.0083M19.344 0C19.3925 6.25097 17.4559 13.2559 12.2272 18.5097C4.58153 26.577 -2.49074 30.8413 2.88322 37.6274M29.2447 13.3329C29.5193 13.3677 29.7249 13.3636 29.9468 13.3532M29.2447 13.3329C29.8345 13.1342 30.1932 12.8509 30.6217 12.3549M29.9468 13.3532C30.2336 13.141 30.4263 12.9451 30.5892 12.707M29.9468 13.3532C30.1519 13.3436 30.3405 13.3158 30.5184 13.2695M30.6217 12.3549C30.7508 12.2055 30.8861 12.0367 31.0361 11.8452C30.8763 12.2072 30.7467 12.4768 30.5892 12.707M30.5892 12.707C30.5695 12.8947 30.5459 13.0823 30.5184 13.2695M30.5184 13.2695C31.0666 13.1269 31.5134 12.8088 32.0286 12.3074C31.6004 12.998 31.2056 13.4235 30.454 13.6666" stroke="#28282B" stroke-width="0.5"/>
</svg>
