<?xml version="1.0" encoding="iso-8859-1"?>
<!-- Uploaded to: SVG Repo, www.svgrepo.com, Generator: SVG Repo Mixer Tools -->
<svg fill="#000000" height="800px" width="800px" version="1.1" id="Layer_1" xmlns="http://www.w3.org/2000/svg" xmlns:xlink="http://www.w3.org/1999/xlink" 
	 viewBox="0 0 512.001 512.001" xml:space="preserve">
<g>
	<g>
		<g>
			<path d="M322.594,384.376c-30.491-9.024-65.637-18.661-96.814-18.661h-24.64c-62.336,0-140.123,72.539-143.406,75.621
				c-3.675,3.465-3.849,9.253-0.393,12.937c1.801,1.911,4.224,2.871,6.665,2.871c2.24,0,4.489-0.823,6.254-2.487
				c0.759-0.704,75.794-70.656,130.88-70.656h24.64c27.365,0,60.215,8.603,91.63,17.911c4.827,1.454,9.929-1.335,11.355-6.171
				C330.201,390.895,327.44,385.812,322.594,384.376z"/>
			<path d="M503.434,210.31c-5.056-0.293-9.371,3.502-9.701,8.539c-0.018,0.311-2.139,31.095-16.091,61.193
				c-17.765,38.318-45.888,57.847-83.547,58.185c-16.421-0.201-30.446-0.969-42.624-2.13
				c74.167-43.557,95.451-199.25,96.457-206.921c0.649-4.992-2.88-9.582-7.89-10.24c-4.992-0.667-9.591,2.871-10.249,7.881
				c-0.265,2.021-27.52,202.331-118.93,202.331c-0.475,0-0.878,0.192-1.326,0.265c-6.281-1.463-11.922-3.008-17.207-4.535
				C371.018,279.933,374.73,91.48,374.858,82.41c0.073-5.047-3.968-9.198-9.015-9.262h-0.137c-4.983,0-9.061,4.005-9.134,9.006
				c-0.027,2.35-4.48,234.066-100.571,234.066c-0.055,0-0.101,0.037-0.155,0.037c-7.442-1.353-14.912-2.441-22.427-3.273
				c71.397-59.694,50.971-241.435,49.947-250.057c-0.594-5.019-5.175-8.585-10.158-8.009c-5.01,0.603-8.594,5.147-8,10.158
				c0.064,0.558,6.583,56.85,0.978,115.776c-4.955,52.096-20.581,116.736-66.67,130.048c-0.393,0-0.777-0.037-1.17-0.037h-14.418
				c53.266-77.495,9.655-215.973,7.634-222.235c-1.554-4.809-6.711-7.415-11.502-5.906c-4.809,1.554-7.451,6.702-5.906,11.511
				c0.494,1.527,48,152.466-14.811,217.947c-5.742,1.015-11.538,2.633-17.344,4.635c37.047-80.613-12.507-187.703-14.875-192.713
				c-2.149-4.562-7.616-6.519-12.169-4.37c-4.562,2.158-6.519,7.607-4.361,12.169c0.594,1.262,58.304,125.815,2.011,198.418
				c-2.039,1.152-4.069,2.322-6.08,3.529c15.808-66.158-31.826-168.064-34.258-173.193c-2.176-4.553-7.625-6.491-12.178-4.343
				c-4.562,2.167-6.51,7.616-4.352,12.178c18.295,38.574,57.435,146.981,20.315,186.322c-4.407,3.401-8.631,6.793-12.571,10.085
				c7.744-61.431-44.041-137.499-46.811-141.522c-2.871-4.151-8.567-5.184-12.718-2.331c-4.151,2.871-5.202,8.567-2.331,12.718
				c0.768,1.115,75.858,111.442,29.12,161.399c-0.402,0.411-0.677,0.695-0.814,0.85c-3.456,3.648-3.301,9.399,0.32,12.873
				c1.774,1.701,4.05,2.542,6.327,2.542c2.386,0,4.763-0.923,6.555-2.761c0.219-0.229,0.43-0.448,0.649-0.667
				c4.837-5.001,40.229-40.878,78.912-62.473c0.046-0.027,0.091-0.055,0.146-0.082c17.115-9.536,34.862-16.293,50.88-16.293h24.631
				c29.166,0,58.176,4.206,86.217,12.517c23.104,6.83,52.389,14.089,108.215,14.83c0.128,0.009,0.238,0.082,0.366,0.082
				c0.521,0,1.006-0.055,1.527-0.064c2.505,0.027,4.992,0.064,7.616,0.064c1.262,0,2.469-0.265,3.566-0.731
				c97.042-10.085,106.048-134.537,106.13-135.845C512.302,214.964,508.471,210.63,503.434,210.31z"/>
		</g>
	</g>
</g>
</svg>