<svg width="45" height="35" viewBox="0 0 45 35" fill="none" xmlns="http://www.w3.org/2000/svg">
<path d="M44.2034 27.6431C44.1337 27.6431 43.8552 28.0024 43.6115 28.3944C43.3678 28.7536 42.7759 29.5702 42.2884 30.1581C41.2787 31.3666 41.4528 31.5625 42.6018 30.4194L43.3678 29.6355L42.8107 30.5827C42.4973 31.1053 42.1492 31.6279 42.0447 31.7585C41.2787 32.673 40.3735 33.3916 39.4682 33.8815C38.4933 34.3714 38.4237 34.4041 37.1703 34.4041H35.8472L31.2165 32.5097C28.6749 31.4645 26.3769 30.55 26.1332 30.452C25.8895 30.3541 24.7405 29.8641 23.5219 29.3742L21.3633 28.4923L21.3981 27.3492C21.4329 26.7286 21.5374 26.1734 21.607 26.1407C21.7114 26.1081 21.9203 26.1734 22.1292 26.304C22.3033 26.4347 22.5819 26.5653 22.7211 26.5653C22.8256 26.5653 23.0693 26.6633 23.2086 26.7613C23.3827 26.8919 23.6264 26.9899 23.8005 26.9899C23.9397 26.9899 24.2183 27.0879 24.4272 27.2512C24.6361 27.4145 24.9146 27.5125 25.0191 27.5125C25.1932 27.5125 25.4021 27.6105 25.5762 27.7411C25.7154 27.8391 25.9591 27.9371 26.1332 27.9371C26.2725 27.9371 26.5162 28.0351 26.6555 28.1657C26.7948 28.2637 27.1081 28.3944 27.2822 28.3944C27.4911 28.427 27.7696 28.5577 27.8741 28.6883C28.0482 28.819 28.2919 28.8843 28.466 28.8516C28.6749 28.819 28.849 28.8843 28.9534 29.0476C29.0231 29.1782 29.2668 29.3089 29.4409 29.3089C29.6498 29.3089 29.8935 29.3742 29.9631 29.5049C30.0676 29.6028 30.2765 29.7008 30.4506 29.7008C30.5898 29.7008 30.9032 29.8315 31.1121 29.9621C31.2862 30.1254 31.5995 30.2561 31.7736 30.2561C31.9477 30.2561 32.2262 30.3541 32.3655 30.452C32.5048 30.55 32.7485 30.648 32.8878 30.648C33.027 30.648 33.2011 30.746 33.3056 30.844C33.41 30.942 33.6538 31.0726 33.8627 31.1053C34.2456 31.2033 34.8375 31.4319 35.6732 31.8238C35.8821 31.9218 36.1606 32.0198 36.3347 32.0198C36.5088 32.0198 36.6829 32.1178 36.8221 32.2484C36.9266 32.3791 37.1355 32.4117 37.414 32.4117C37.6229 32.3464 37.9015 32.4117 37.9711 32.5097C38.18 32.7383 38.5978 32.7383 39.0156 32.5424C39.1897 32.4444 39.5379 32.3791 39.7816 32.4117C40.0253 32.4117 40.3038 32.3464 40.4431 32.2484C40.8261 31.9545 41.5573 30.746 42.3929 29.0149C43.124 27.5125 43.124 27.3819 42.8803 27.2512C42.5321 27.0879 42.4625 27.0879 42.4625 27.2512C42.4625 27.3492 41.9751 28.3944 41.418 29.6355C40.6172 31.3992 40.3387 31.8891 40.0253 31.9871C39.8164 32.0851 39.6423 32.1504 39.6423 32.1178C39.6075 32.0851 40.1298 30.942 40.7913 29.5049C41.9054 27.0879 41.9751 26.8919 41.7314 26.7939C41.5573 26.7286 41.418 26.696 41.3832 26.7286C41.3832 26.7613 40.7913 27.9698 40.1298 29.4395C39.4682 30.8766 38.8763 32.1504 38.8067 32.1831C38.7719 32.2484 38.5978 32.2811 38.4237 32.2484C38.1452 32.2158 38.2148 32.0198 39.3638 29.5702C40.0253 28.1004 40.6172 26.7939 40.7217 26.696C40.8261 26.5 40.7913 26.402 40.5476 26.2714C40.4083 26.206 40.2342 26.1734 40.2342 26.206C40.1994 26.206 39.6075 27.4798 38.9112 29.0149C37.4488 32.2484 37.4836 32.1831 37.2051 32.0851C37.031 32.0198 37.1007 31.7585 37.6577 30.55C39.5379 26.598 39.7468 26.0101 39.5379 25.8794C39.4334 25.8141 39.2941 25.7488 39.2593 25.7488C39.2245 25.7488 38.563 27.0879 37.797 28.7536C37.0658 30.3867 36.4043 31.7585 36.3695 31.7585C36.3347 31.7585 36.1954 31.6932 36.091 31.6279C35.9169 31.5299 36.1606 30.9093 37.2747 28.4923C38.563 25.7161 38.6326 25.4875 38.3541 25.3895C38.2148 25.3568 38.0755 25.3568 38.0407 25.3895C38.0059 25.3895 37.3792 26.7286 36.648 28.329C35.9169 29.9621 35.2902 31.2686 35.2902 31.3012C35.1857 31.3666 34.7679 31.1706 34.7679 31.0399C34.7679 30.942 36.8918 26.206 37.3096 25.4548C37.4836 25.0955 37.4836 25.0629 37.2051 24.9322C37.031 24.8343 36.8918 24.8016 36.8918 24.8343C36.8569 24.8669 36.2302 26.206 35.5339 27.8065C34.8027 29.4069 34.1412 30.746 34.0716 30.746C34.0367 30.7787 33.8975 30.746 33.7582 30.6807C33.5841 30.55 33.793 29.9948 34.942 27.5452C35.708 25.8794 36.265 24.5403 36.1954 24.5403C36.1606 24.5403 35.9865 24.5076 35.8821 24.475C35.7428 24.4097 35.325 25.2262 34.3153 27.3819C33.5841 29.0476 32.9226 30.3867 32.8878 30.3867C32.853 30.3867 32.7137 30.3214 32.6092 30.2561C32.4351 30.1581 32.6441 29.5702 33.793 27.1206C35.1161 24.279 35.1509 24.1157 34.9072 23.9851C34.6635 23.8544 34.5938 23.9197 34.3501 24.4097C34.2108 24.7363 33.5841 26.1081 32.9574 27.4472C32.3307 28.819 31.8084 29.9295 31.8084 29.9295C31.7736 29.9621 31.6692 29.8968 31.5299 29.7988C31.2862 29.6355 31.321 29.4722 32.3655 27.1859C32.9922 25.8468 33.6189 24.475 33.7582 24.2137C33.8975 23.9197 34.0367 23.6584 34.0019 23.6584C33.9671 23.6258 33.8278 23.5931 33.6886 23.5278C33.41 23.4625 33.2359 23.7891 32.0173 26.4347C31.2862 28.0677 30.6247 29.4395 30.555 29.4395C30.4854 29.4395 30.3809 29.3742 30.3461 29.3089C30.2765 29.2109 31.2862 26.9246 32.9574 23.3645C33.027 23.2338 32.4351 22.9725 32.3655 23.0705C32.3655 23.1032 31.7388 24.4097 31.0076 26.0427C30.3113 27.6431 29.6498 28.9823 29.5801 28.9823C29.5453 29.0149 29.3712 28.9823 29.2668 28.8843C29.0927 28.7863 29.1971 28.525 31.8084 22.9399C31.8781 22.7766 31.4254 22.5806 31.2862 22.7113C31.2165 22.7766 30.555 24.1157 29.8587 25.6835C28.6053 28.3944 28.3963 28.6883 28.0482 28.3617C27.9785 28.2964 28.5704 26.9246 29.3364 25.2915C30.0676 23.6584 30.6943 22.2867 30.6595 22.2867C30.6595 22.254 30.5202 22.2213 30.3461 22.1887C30.1372 22.156 29.8587 22.6133 28.7445 25.0629C28.0134 26.696 27.3518 28.0024 27.2822 28.0351C27.2126 28.0351 27.0733 28.0024 26.9688 27.9371C26.8296 27.8718 27.0733 27.1532 28.1526 24.8669C29.406 22.0907 29.5105 21.8621 29.232 21.7641C29.0927 21.6987 28.9186 21.6661 28.9186 21.6987C28.8838 21.6987 28.2919 23.0379 27.5956 24.6056C26.8644 26.1734 26.2377 27.5125 26.2029 27.5778C26.168 27.6105 26.0288 27.5778 25.8895 27.5125C25.6806 27.3492 25.7851 27.0226 27.0037 24.4097C28.2223 21.7314 28.3267 21.4701 28.1178 21.3068C27.9089 21.1435 27.8045 21.2415 27.3518 22.1887C27.0733 22.7766 26.4466 24.1157 25.9591 25.1609C25.5065 26.2387 25.0539 27.0879 24.9843 27.1206C24.3924 27.1206 24.4968 26.8593 25.8547 23.9197C26.8644 21.7314 27.1777 20.9149 27.0385 20.8169C26.934 20.7842 26.7948 20.7516 26.7251 20.7516C26.6555 20.7842 25.994 22.1233 25.2628 23.7238C24.4968 25.3242 23.8701 26.6306 23.8005 26.598C23.313 26.4673 23.2086 26.8593 25.0191 22.9399C26.0984 20.6536 26.1332 20.4576 25.8895 20.3596C25.7154 20.327 25.5762 20.327 25.5762 20.327C25.5413 20.3596 24.9146 21.6987 24.1835 23.2992C23.4523 24.8996 22.8256 26.2387 22.7908 26.2714C22.7908 26.2714 22.6515 26.206 22.5471 26.1081C22.3033 25.9774 22.4078 25.7161 23.6612 23.0052C24.9146 20.229 25.0191 20.033 24.7405 19.9024C24.6013 19.837 24.462 19.8044 24.4272 19.8697C24.3924 19.935 23.8005 21.2088 23.1041 22.7766C22.4078 24.3117 21.7463 25.6181 21.7114 25.6835C21.607 25.7488 21.5025 25.7488 21.3981 25.6508C21.2936 25.5528 21.5374 24.8343 22.373 23.1032C22.9997 21.7314 23.6264 20.4249 23.7308 20.131C24.0094 19.6411 24.0094 19.6411 23.696 19.4778C23.5568 19.4124 23.4175 19.3471 23.3827 19.3798C23.3827 19.4124 22.756 20.7189 22.0596 22.3193C20.8062 25.0302 20.7366 25.2589 20.8758 25.7161C21.0151 26.206 20.9455 27.8391 20.7714 28.3944C20.7017 28.6557 21.4329 28.9823 28.1178 31.6605C32.1914 33.3263 35.8124 34.7307 36.1954 34.8287C39.0156 35.4166 42.7411 32.771 43.89 29.3742C44.2382 28.329 44.3775 27.6758 44.2034 27.6758V27.6431Z" fill="#28282B"/>
<path d="M43.6811 22.1887C43.1936 21.9927 36.1605 18.9878 32.3655 17.3221C31.7387 17.0608 30.3461 16.4729 29.3015 16.0156C28.2222 15.5584 27.3866 15.1664 27.4214 15.1011C27.4562 15.0358 34.9419 9.28737 39.5726 5.82525C40.5823 5.07403 41.3831 4.45346 41.3831 4.4208C41.3831 4.38814 40.8957 4.51879 40.3386 4.64943C37.1354 5.49863 31.6343 8.53615 25.5065 12.8801L24.1834 13.8273L20.7365 12.3576C18.8216 11.541 17.2548 10.8551 17.22 10.8225C17.1851 10.8225 17.3592 10.5938 17.6378 10.3652C18.3689 9.64665 18.7171 8.79745 18.7867 7.55631C18.8564 6.24985 18.6823 5.53129 17.9859 4.22483C15.6184 -0.249796 8.96827 -1.49093 6.67034 2.10183C4.75539 5.04137 6.94888 9.61399 11.0225 11.2471C11.4403 11.4104 13.1115 12.1616 14.7479 12.9455C16.4192 13.6967 18.5082 14.6112 19.4134 15.0031C20.3187 15.3951 21.1195 15.7544 21.1891 15.8197C21.2239 15.8523 20.8758 16.2116 20.3883 16.5709C19.309 17.3548 13.7034 21.7641 13.1463 22.2213C12.9374 22.4173 12.2411 22.8092 11.6144 23.1032C8.68974 24.475 6.84442 27.5125 7.22741 30.2561C7.43632 31.7258 8.37638 32.967 9.73425 33.5875C10.6743 34.0121 12.4152 34.1755 13.599 33.9468C15.4791 33.5549 17.6378 32.1504 18.7519 30.5827C20.6669 27.8391 20.3187 24.4423 17.9859 23.0379L17.3592 22.6459L19.0653 21.3721C20.0053 20.6536 21.6417 19.4124 22.6863 18.6286L24.6012 17.1588L25.8895 17.6814C34.0019 20.8496 40.269 22.5806 43.2632 22.45L44.2729 22.4173L43.6811 22.1887ZM40.4431 21.7967C39.3985 21.6661 37.588 21.2415 36.7872 20.9802C36.5783 20.9149 35.8472 20.7189 35.116 20.5229C33.5841 20.0657 29.6149 18.6939 26.934 17.6487C25.8546 17.2568 24.8449 16.8975 24.636 16.8975C24.4271 16.8975 23.9745 17.1261 23.6263 17.4201C23.2433 17.714 22.8603 18.008 22.7211 18.106C22.6166 18.1713 21.8855 18.7266 21.1195 19.3145C20.3535 19.9024 19.309 20.6862 18.8216 21.0455C18.3341 21.4048 17.6726 21.9274 17.394 22.1887L16.8718 22.6786L17.2896 22.9399C18.7519 23.9851 19.3786 24.9649 19.4831 26.3693C19.7616 29.3742 17.2896 32.4771 13.9123 33.4569C12.9723 33.7182 11.2314 33.6855 10.361 33.3916C9.4209 33.0976 8.51565 32.3137 8.09784 31.5299C7.33186 30.0928 7.57558 27.6758 8.68974 26.1081C9.45572 24.9976 10.744 23.8871 11.9277 23.3645C12.4848 23.1032 13.1115 22.7766 13.3204 22.6133C13.4945 22.45 13.8775 22.156 14.0864 21.96C15.1309 21.1108 17.4289 19.2818 19.2394 17.9427C21.0499 16.5709 21.7114 16.0156 21.7114 15.8523C21.7114 15.6564 21.1195 15.3298 19.6223 14.6765C18.6823 14.2519 17.8815 13.9253 17.8467 13.9253C17.8119 13.9253 16.3843 13.2721 14.6435 12.4555C12.9026 11.639 11.0573 10.8225 10.5699 10.5938C8.30675 9.61399 6.49625 7.00106 6.46143 4.68209C6.42662 2.88571 7.1926 1.57925 8.68974 0.828034C9.24681 0.534081 9.52535 0.501419 11.0573 0.501419C12.7634 0.501419 12.7982 0.534081 13.9123 1.024C16.6629 2.26514 18.543 5.10669 18.3341 7.58897C18.2645 8.53615 17.7422 9.71197 17.1851 10.2999C16.9414 10.4958 16.7673 10.7245 16.7673 10.7898C16.7673 10.9858 17.2896 11.2797 18.3689 11.737C18.9608 11.9656 20.0053 12.4229 20.7017 12.7168C23.7308 14.056 24.0441 14.1866 24.2879 14.0886C24.4271 14.0233 25.1583 13.566 25.9243 13.0434C30.6246 9.71197 36.5783 6.28251 38.8415 5.56396L39.4682 5.33532L39.12 5.62928C38.9111 5.79259 38.5629 6.08654 38.3192 6.28251C38.0755 6.47848 37.4488 6.9684 36.8569 7.393C35.4642 8.40551 32.8529 10.3652 32.5395 10.6592C32.4003 10.8225 32.261 10.9204 32.1914 10.9204C32.1217 10.9204 31.8432 11.1164 31.5647 11.3777C31.112 11.7696 30.3112 12.3902 28.9534 13.3701C26.7251 15.0031 26.6902 15.0358 27.1777 15.4277C27.317 15.5584 28.9534 16.2769 30.7639 17.0608C40.3038 21.1435 41.9054 21.8621 41.7313 21.9274C41.6268 21.96 41.0349 21.8947 40.4431 21.7967Z" fill="#28282B"/>
<path d="M24.8103 14.8724C24.3229 14.5132 23.9051 14.5132 23.4176 14.9051C22.8257 15.395 22.7909 15.7543 23.2783 16.2116C23.8354 16.7341 24.4273 16.7668 24.8799 16.3095C25.3326 15.8849 25.2977 15.2317 24.8103 14.8724ZM24.4621 16.2116C23.8354 16.5708 23.1043 15.6563 23.6265 15.1664C23.9051 14.9051 24.4273 14.9704 24.671 15.297C24.9148 15.6237 24.8451 15.9829 24.4621 16.2116Z" fill="#28282B"/>
<path d="M17.4291 27.0226C17.2202 26.8266 13.7037 25.3568 13.0422 25.1608C12.6592 25.0302 11.3361 25.8141 10.7094 26.5653C9.17746 28.3617 9.03819 30.452 10.4309 31.3665C10.8139 31.6278 11.1272 31.6932 12.1021 31.7258C13.1814 31.7585 13.3555 31.7258 14.1911 31.3665C14.6786 31.1379 15.4446 30.648 15.8624 30.2887C17.1158 29.1456 17.9166 27.4145 17.4291 27.0226ZM16.7328 28.5903C16.0713 29.9948 14.0519 31.3012 12.4155 31.4319C11.4406 31.4972 10.5353 31.1379 10.1872 30.5173C9.59527 29.4722 10.1872 27.6105 11.4406 26.4346C12.6244 25.3568 12.5547 25.3568 14.7482 26.2387C15.8276 26.6633 16.8373 27.0552 16.9765 27.1532C17.2551 27.2838 17.1854 27.6431 16.7328 28.5903Z" fill="#28282B"/>
<path d="M16.3497 6.15198C15.6882 4.15962 13.3206 2.36324 11.1968 2.23259C10.2219 2.16727 9.59518 2.36324 8.89884 3.01647C7.4017 4.35559 8.68993 7.45844 11.3012 8.86288C12.102 9.28748 13.8429 9.84273 14.3651 9.84273C14.7133 9.84273 15.8623 8.96087 16.2105 8.40562C16.489 7.98102 16.5586 6.83787 16.3497 6.15198ZM15.8275 8.17699C15.723 8.40562 15.34 8.79756 15.0267 9.05885L14.4348 9.51611L13.251 9.1895C12.5895 8.99353 11.7887 8.73224 11.4753 8.53627C10.6397 8.07901 9.56036 6.96851 9.17737 6.11931C8.68993 5.17213 8.65512 3.89833 9.10774 3.37575C10.6049 1.61202 14.6089 3.14712 15.7926 5.95601C16.106 6.6419 16.106 7.68707 15.8275 8.17699Z" fill="#28282B"/>
<path d="M22.4774 19.9023C22.0945 19.9023 21.3981 20.8169 20.7714 22.1887C20.1447 23.5604 20.0751 23.7564 20.2491 24.083C20.4232 24.4096 20.458 24.377 21.3285 22.4826C21.8159 21.4048 22.3382 20.3923 22.4078 20.229C22.5123 20.033 22.5471 19.9023 22.4774 19.9023Z" fill="#28282B"/>
<path d="M19.727 21.9928C19.1003 22.6133 19.0655 22.646 19.344 22.9073C19.5877 23.1686 19.5877 23.1686 20.0055 22.352C20.2144 21.8621 20.4233 21.4702 20.4233 21.4049C20.4233 21.3722 20.11 21.6335 19.727 21.9928Z" fill="#28282B"/>
<path d="M17.9861 17.1261C17.7772 16.9628 17.5683 17.0608 17.3942 17.4527L17.2549 17.8447L17.6727 17.5507C18.1602 17.2241 18.1253 17.2568 17.9861 17.1261Z" fill="#28282B"/>
<path d="M16.9069 16.7342C16.6631 16.6689 16.5587 16.7669 16.4194 17.1261C16.2801 17.3874 16.0364 17.9427 15.8275 18.3673C15.6186 18.7919 15.4794 19.1512 15.5142 19.1838C15.6534 19.2818 16.5239 18.302 16.8372 17.6487C17.0461 17.2241 17.2202 16.8649 17.2202 16.8322C17.2202 16.8322 17.0809 16.7669 16.9069 16.7342Z" fill="#28282B"/>
<path d="M15.8969 16.3422C15.8273 16.3422 15.688 16.3096 15.6184 16.3096C15.4791 16.3096 13.2508 20.8495 13.3553 20.9475C13.3553 20.9802 13.6338 20.7515 13.9123 20.4902C14.2605 20.131 14.7131 19.4124 15.2354 18.2039C16.1406 16.2116 16.1058 16.3749 15.8969 16.3422Z" fill="#28282B"/>
<path d="M14.6087 15.7871C14.3649 15.7217 14.2605 15.8197 14.0516 16.277C13.9123 16.5709 13.3204 17.9427 12.7285 19.2492C12.1366 20.5883 11.5796 21.6661 11.4751 21.6661C10.918 21.6661 10.9877 21.4048 12.3455 18.4653C13.3552 16.3097 13.6686 15.4605 13.5293 15.3951C13.4597 15.3298 13.3204 15.2971 13.2508 15.3298C13.1115 15.3625 11.4403 18.8572 10.6047 20.7516C10.4306 21.2089 10.361 21.2415 10.1172 21.1436C9.87352 21.0129 9.94316 20.7843 11.1966 18.0407C11.9626 16.4076 12.5545 15.0359 12.5545 15.0032C12.5545 14.9379 12.45 14.8725 12.3107 14.8399C12.0322 14.7746 11.8581 15.1012 9.94316 19.3145C9.59499 20.0984 9.24681 20.719 9.17718 20.719C8.6201 20.719 8.68974 20.425 10.0476 17.5181C11.0921 15.2318 11.3707 14.5133 11.2314 14.4479C11.1269 14.3826 10.9877 14.35 10.918 14.35C10.8136 14.3826 9.38608 17.4201 8.55047 19.4125C8.13266 20.3597 8.13266 20.3923 7.78449 20.1964C7.64522 20.0984 7.88894 19.4452 9.00309 17.0935C10.2565 14.3173 10.361 14.0887 10.0824 13.9907C9.94316 13.9254 9.80389 13.8927 9.76907 13.9254C9.73426 13.958 9.10755 15.2971 8.37638 16.9302C7.22741 19.4778 6.98369 19.8698 6.73997 19.8044C6.6007 19.7718 6.46144 19.7064 6.46144 19.7064C6.46144 19.6738 7.08815 18.302 7.85413 16.6363C8.6201 14.9705 9.212 13.5987 9.212 13.5661C9.17718 13.5334 9.03791 13.5008 8.89864 13.4681C8.68974 13.4354 8.4112 13.9254 7.29705 16.375C6.56589 18.008 5.90436 19.3472 5.83473 19.3472C5.24283 19.3472 5.34728 19.0859 6.70516 16.1463C7.71486 13.958 8.02821 13.1415 7.88894 13.0762C7.78449 13.0108 7.64522 12.9782 7.57559 13.0108C7.50595 13.0435 6.84443 14.35 6.11326 15.983C4.82503 18.7266 4.61612 19.0206 4.26795 18.6939C4.23313 18.6613 4.79021 17.2895 5.52137 15.6891C6.73997 13.0762 6.84443 12.7495 6.67034 12.5862C6.53107 12.4883 6.3918 12.4556 6.32217 12.5209C6.28735 12.5862 5.66064 13.86 4.96429 15.3951C4.26795 16.9629 3.67606 18.2367 3.64124 18.2693C3.60642 18.302 3.46715 18.2367 3.3627 18.106C3.18861 17.9427 3.29307 17.5835 4.47685 15.0685C5.45174 12.8802 5.73027 12.227 5.591 12.129C5.48655 12.0637 5.34728 12.031 5.27765 12.0637C5.20802 12.0637 4.61612 13.2721 3.95459 14.7092C2.80563 17.2568 2.77081 17.3222 2.59672 16.9302C2.42264 16.5383 2.49227 16.3423 3.43234 14.2846C4.02423 13.0762 4.51167 11.9983 4.54649 11.9003C4.5813 11.835 4.47685 11.7044 4.33758 11.6064C4.05905 11.4757 3.98941 11.6064 3.39752 12.9455C3.01453 13.7294 2.63154 14.5786 2.5619 14.7746C2.49227 15.0032 2.38782 15.1665 2.353 15.1012C2.24855 15.0359 2.66636 12.8149 2.94489 11.835C3.3627 10.3979 2.87526 10.7245 1.90038 12.4883C1.62184 13.0108 1.30848 13.7947 1.16922 14.252C0.99513 15.0359 0.890677 16.6363 1.06476 16.473C1.09958 16.4076 1.27367 15.8851 1.41294 15.2318C1.65666 14.1213 2.10928 12.8802 2.10928 13.1741C2.1441 13.2721 2.03965 13.6641 1.97001 14.056C1.86556 14.7092 1.86556 14.8399 2.1441 15.1665C2.38782 15.5258 2.42264 15.5584 2.21373 15.983C1.90038 16.5056 2.03965 17.1262 2.49227 17.3875C2.70117 17.5181 2.84044 17.6814 2.77081 17.7141C2.73599 17.7794 2.73599 17.9427 2.80563 18.0407C2.91008 18.302 4.3724 19.2165 4.68576 19.2165C4.82503 19.2165 5.06875 19.3472 5.20802 19.4452C5.34728 19.5758 5.591 19.6738 5.73027 19.7064C5.86954 19.7064 6.14808 19.8371 6.32217 19.9351C6.53107 20.0657 6.84443 20.1637 7.01851 20.1637C7.1926 20.1637 7.4015 20.2617 7.50595 20.3923C7.6104 20.4903 7.78449 20.5883 7.95858 20.5883C8.09785 20.5883 8.4112 20.719 8.65492 20.8823C8.89864 21.0456 9.17718 21.1436 9.28163 21.0782C9.4209 21.0456 9.52535 21.0782 9.59499 21.2089C9.6298 21.3069 9.87352 21.4375 10.1521 21.4702C11.0921 21.6335 11.0921 21.8621 10.0476 22.5153C9.52535 22.842 9.07273 23.1359 9.07273 23.2012C9.07273 23.2666 8.96828 23.2992 8.82901 23.2992C8.58529 23.2992 4.99911 21.9274 3.88496 21.4048C2.5619 20.8169 1.86556 19.8371 1.30848 17.8121L0.960312 16.5709L1.02995 17.6814C1.09958 18.9879 1.51739 19.9677 2.31818 20.8169C2.91008 21.4048 3.22343 21.5682 6.46144 22.8746L8.82901 23.8218L9.6298 23.2339C10.0824 22.9073 10.8484 22.45 11.3358 22.254L12.1715 21.8621L13.5293 18.8899C14.2953 17.2895 14.8872 15.9177 14.8872 15.8851C14.8872 15.8851 14.7479 15.8197 14.6087 15.7871Z" fill="#28282B"/>
</svg>
