<svg width="49" height="40" viewBox="0 0 49 40" fill="none" xmlns="http://www.w3.org/2000/svg">
<path d="M16.9564 0.930979C17.9842 0.397899 19.1193 0.0419002 20.2816 0C20.5635 0.0082577 20.8482 0.0293606 21.1204 0.108879C21.6904 0.270363 22.2026 0.589049 22.6622 0.95667C23.4068 1.56988 24.0362 2.31705 24.5502 3.13181C24.7927 3.53246 25.0413 3.94076 25.1532 4.40074C25.2502 4.82219 25.2557 5.25954 25.2129 5.68833C25.1566 6.37525 25 7.05177 24.9817 7.74175C24.9532 7.88335 24.989 8.02557 24.9921 8.16778C25.0193 8.57547 25.1728 8.98897 25.4798 9.26881C25.8202 9.5612 26.2385 9.74042 26.6532 9.90007C27.7109 10.2967 28.8194 10.5714 29.8246 11.0984C30.3952 11.3941 30.9273 11.7819 31.3312 12.2859C31.6777 12.7065 31.9021 13.2126 32.0587 13.731C32.2789 14.4678 32.3822 15.2333 32.4544 15.9973C32.5926 17.5137 32.5935 19.0377 32.7363 20.5537C32.8119 21.2599 32.9054 21.9725 33.1467 22.6445C33.5488 23.6605 34.191 24.5807 35.0078 25.3071C35.835 26.0564 36.8025 26.6231 37.7578 27.1905C37.5844 27.4822 37.4172 27.7777 37.2355 28.0643C36.7839 27.7795 36.3148 27.5226 35.8704 27.2266C34.9099 26.6033 34.0045 25.8705 33.3054 24.9566C32.8929 24.4269 32.5568 23.84 32.2881 23.2255C32.0709 22.7289 31.952 22.1964 31.8563 21.6648C31.6327 20.265 31.6147 18.8447 31.5355 17.4326C31.486 16.5325 31.4278 15.6297 31.2615 14.7424C31.1526 14.198 31.0083 13.6494 30.7196 13.1701C30.4569 12.7389 30.0597 12.408 29.6307 12.1511C29.0848 11.822 28.4824 11.6042 27.8831 11.3956C27.2865 11.1858 26.6767 11.0115 26.0917 10.7699C25.6936 10.6084 25.3028 10.4179 24.963 10.1524C24.275 9.64163 23.9459 8.76112 23.9686 7.92219C23.9453 7.00651 24.2034 6.11284 24.2248 5.1996C24.2221 4.90446 24.1912 4.59862 24.0563 4.33162C23.6383 3.47527 23.0542 2.70424 22.3702 2.04332C21.9448 1.65399 21.4727 1.29187 20.9192 1.10837C20.4391 0.950247 19.926 1.0313 19.4397 1.11357C18.8529 1.23743 18.2762 1.41818 17.7358 1.67968C17.2475 1.90416 16.7802 2.18829 16.3952 2.56692C16.1986 2.77275 16.0222 3.01681 15.9726 3.30339C15.8843 3.78294 15.9616 4.2726 16.0509 4.74634C16.1787 5.36475 16.3729 5.96818 16.602 6.55662C16.8539 7.20592 17.1518 7.83778 17.4967 8.44304C17.712 8.81066 17.9401 9.17461 18.2211 9.49666C18.9713 10.3117 19.926 10.9118 20.9241 11.377C21.3834 11.5785 21.8574 11.7639 22.357 11.8327C22.5295 11.8605 22.7264 11.8159 22.828 11.662C23.0445 11.3605 23.124 10.9879 23.2016 10.6316C23.2778 10.2392 23.3322 9.84318 23.3759 9.4462C23.7111 9.49177 24.0472 9.53336 24.3826 9.57893C24.3264 10.082 24.2582 10.5855 24.1435 11.0791C24.0328 11.529 23.8811 11.9871 23.5753 12.345C23.3154 12.6566 22.9191 12.8432 22.5142 12.8542C22.1246 12.8572 21.7436 12.7557 21.3739 12.6422C20.4158 12.3177 19.5134 11.8391 18.6905 11.2528C18.3117 10.9748 17.9444 10.6778 17.6193 10.338C17.2068 9.91016 16.883 9.40736 16.5873 8.89446C16.0026 7.86256 15.543 6.75939 15.2164 5.61891C15.0907 5.15189 14.988 4.67692 14.9412 4.19491C14.9201 3.99061 14.932 3.78509 14.9283 3.58017C14.9259 3.07095 15.0984 2.56478 15.4112 2.16291C15.8161 1.6335 16.3763 1.24661 16.9564 0.930979Z" fill="#28282B"/>
<path d="M25.0326 12.3426C25.3017 12.2627 25.58 12.2184 25.8583 12.1838C25.9093 12.5184 25.9592 12.8533 26.006 13.1888C25.5996 13.2411 25.1727 13.3026 24.8284 13.5427C24.4727 13.7812 24.2351 14.1507 24.0327 14.5195C23.7935 14.96 23.6868 15.4548 23.5972 15.9432C23.3657 17.3021 23.2431 18.6845 22.8618 20.0137C22.6603 20.7299 22.3869 21.4288 22.0141 22.0738C21.457 23.006 20.7652 23.8498 20.0384 24.6536C19.8179 24.8915 19.5996 25.1313 19.3662 25.3567C19.1913 25.55 19.0094 25.7369 18.817 25.9127C17.2981 27.4009 15.6725 28.776 14.0491 30.148C13.831 29.8893 13.6044 29.6376 13.394 29.3724C14.2469 28.6625 15.0872 27.9374 15.9224 27.2064C16.6205 26.5896 17.3146 25.9675 17.9791 25.3148C18.1008 25.1812 18.2461 25.072 18.3681 24.9389C18.5614 24.7138 18.7895 24.5218 18.9858 24.2994C19.4384 23.8226 19.8711 23.3265 20.2751 22.8075C20.6065 22.3775 20.9295 21.9377 21.1946 21.4627C21.8438 20.2886 22.1147 18.9536 22.3117 17.6394C22.4398 16.8378 22.5251 16.0283 22.7052 15.2358C22.7899 14.8859 22.8899 14.5364 23.0541 14.2143C23.2715 13.7644 23.5443 13.3338 23.9091 12.9885C24.2241 12.6869 24.6125 12.4606 25.0326 12.3426Z" fill="#28282B"/>
<path d="M20.2079 14.7904C20.5783 14.3937 21.0128 14.0646 21.4382 13.7297C21.6002 13.9573 21.7865 14.1674 21.943 14.3989C21.566 14.687 21.1905 14.9806 20.8584 15.321C20.6036 15.5688 20.3878 15.8532 20.1878 16.1462C19.9077 16.5826 19.6658 17.0466 19.497 17.5381C19.2166 18.3825 19.0432 19.2572 18.8527 20.1249C18.6805 20.9167 18.5077 21.7097 18.2689 22.4847C18.146 22.867 18.0084 23.2463 17.823 23.6035C17.5176 24.177 17.1053 24.6856 16.6622 25.1581C16.0699 25.7857 15.4244 26.364 14.7318 26.8794C14.5709 26.6537 14.4104 26.4279 14.2446 26.2062C15.1856 25.4722 16.0941 24.6703 16.7873 23.691C17.2754 23.0148 17.4913 22.196 17.7013 21.4018C17.9362 20.4411 18.1273 19.4704 18.3551 18.5082C18.486 17.9659 18.6279 17.424 18.8389 16.9065C19.1682 16.13 19.6178 15.3966 20.2079 14.7904Z" fill="#28282B"/>
<path d="M26.3219 20.2971C26.4274 19.8007 26.4708 19.2942 26.5403 18.793C26.8185 18.8248 27.0974 18.8532 27.3751 18.8918C27.2879 19.5496 27.2219 20.213 27.0601 20.8586C26.8928 21.5263 26.6491 22.1798 26.2913 22.7698C25.7204 23.7439 24.8957 24.536 24.0413 25.2606C22.52 26.5243 20.8586 27.6027 19.2186 28.7034C19.062 28.4698 18.9091 28.2337 18.7495 28.0021C19.7764 27.3244 20.8017 26.6442 21.8017 25.927C22.7652 25.2328 23.712 24.5061 24.5495 23.6613C24.9073 23.2803 25.2486 22.8784 25.5189 22.4291C25.9198 21.7786 26.1828 21.047 26.3219 20.2971Z" fill="#28282B"/>
<path d="M23.2139 26.0392C23.4793 25.8627 23.7453 25.6869 24.005 25.5024C24.3322 25.9997 24.6747 26.4879 24.9664 27.0075C25.2636 27.5467 25.5361 28.1244 25.5712 28.7492C25.618 29.375 25.4242 29.9836 25.2196 30.5666C24.9187 30.4601 24.6166 30.358 24.3153 30.2531C24.4383 29.9026 24.5621 29.5481 24.608 29.1777C24.6563 28.8043 24.582 28.4235 24.4325 28.0807C24.119 27.3491 23.6518 26.6992 23.2139 26.0392Z" fill="#28282B"/>
<path d="M16.7417 29.1311C17.5469 28.9779 18.3835 28.9914 19.1832 29.1706C19.7749 29.2972 20.3471 29.5006 20.9125 29.7131C21.5978 29.9722 22.2714 30.2612 22.9396 30.5622C24.0429 31.0469 25.1361 31.5549 26.2452 32.0265C27.3424 32.4865 28.4558 32.9223 29.6127 33.2089C30.2824 33.3673 30.9738 33.4759 31.6624 33.4098C32.8269 33.3141 33.9216 32.8532 34.9518 32.3275C35.6032 31.9944 36.2396 31.6332 36.8885 31.2956C37.3557 31.0463 37.833 30.8139 38.3281 30.6252C38.9887 30.371 39.6914 30.1927 40.4039 30.2144C41.7971 30.2343 43.1573 30.6582 44.3979 31.2735C45.7336 31.9369 46.9601 32.7917 48.179 33.6447C47.9827 33.9209 47.7989 34.2056 47.5965 34.4772C46.5748 33.7594 45.5464 33.045 44.4505 32.4434C43.3306 31.8351 42.112 31.3564 40.8317 31.2533C40.4335 31.2209 40.0293 31.2114 39.636 31.2925C39.0853 31.4029 38.5578 31.6066 38.0514 31.8467C36.89 32.3999 35.7952 33.0863 34.6207 33.6129C34.0131 33.8906 33.3798 34.1151 32.7296 34.2699C32.2556 34.3656 31.7743 34.4472 31.2893 34.4381C30.6086 34.4543 29.9316 34.3353 29.2735 34.1702C28.017 33.8536 26.8122 33.3685 25.6214 32.8648C24.5013 32.3816 23.3931 31.8715 22.2778 31.3766C21.6124 31.0854 20.943 30.8019 20.2611 30.5511C19.6052 30.3233 18.9364 30.1009 18.2392 30.0529C17.5129 30.0052 16.7692 30.0957 16.0968 30.3829C15.3299 30.6995 14.6657 31.2475 14.1883 31.9241C14.0709 32.0984 13.9516 32.2752 13.8764 32.4727C13.7865 32.8226 13.9257 33.1805 14.0749 33.4933C14.4587 34.2081 15.0608 34.791 15.7461 35.2167C16.3106 35.5146 16.928 35.6923 17.5386 35.8691C18.9058 36.2407 20.2942 36.5303 21.6892 36.7747C21.6182 37.1078 21.5504 37.4417 21.4779 37.7745C20.1535 37.5283 18.8297 37.2671 17.5276 36.9172C16.9038 36.7496 16.2812 36.5667 15.6861 36.3132C15.106 36.0734 14.6051 35.6792 14.1519 35.2513C13.7281 34.8262 13.3529 34.3451 13.0969 33.7998C12.8465 33.2566 12.7288 32.6088 12.9572 32.0381C13.0682 31.7919 13.1994 31.5519 13.3667 31.3396C13.0281 31.5063 12.6413 31.5283 12.2704 31.5289C11.9328 31.5127 11.5943 31.4892 11.2616 31.4261C10.5484 31.2821 9.8546 31.0598 9.15616 30.8591C8.43051 30.6478 7.7021 30.4404 6.95963 30.2964C6.52296 30.2123 6.07955 30.1468 5.6337 30.1587C5.25818 30.1477 4.89092 30.2517 4.54171 30.3808C3.73012 30.6915 3.01854 31.217 2.39105 31.8103C1.9773 32.2189 1.5868 32.6627 1.31128 33.1783C0.968179 33.86 0.946773 34.6687 1.12964 35.3996C1.22841 35.7682 1.38742 36.1291 1.6446 36.4147C1.92777 36.7083 2.28432 36.9187 2.64883 37.0949C3.33687 37.4105 4.08362 37.5956 4.83772 37.6525C5.60924 37.7204 6.38137 37.5995 7.13455 37.4402C8.37424 37.1659 9.6014 36.8022 10.7527 36.2609C11.042 36.1116 11.334 35.9581 11.5817 35.744C11.7371 35.6143 11.8325 35.4155 11.8325 35.2131C11.8062 34.9008 11.667 34.6127 11.5093 34.3472C11.1484 33.76 10.6968 33.2367 10.2524 32.7122C10.5087 32.4893 10.7705 32.2727 11.0319 32.0556C11.4435 32.5584 11.8722 33.0499 12.2328 33.5921C12.4954 34.0032 12.7413 34.4427 12.8187 34.9308C12.8731 35.3045 12.8294 35.7039 12.6334 36.0327C12.3835 36.4783 11.9417 36.7689 11.5056 37.0108C10.9457 37.3151 10.3518 37.554 9.74971 37.761C8.99348 38.0222 8.22257 38.2424 7.44095 38.4134C6.5887 38.5966 5.71535 38.7403 4.842 38.6703C4.061 38.6183 3.28611 38.4507 2.55862 38.1602C2.06017 37.9583 1.57824 37.7014 1.16542 37.353C0.733634 36.9943 0.430896 36.501 0.246196 35.9752C-0.0950721 34.984 -0.0929315 33.8613 0.324174 32.893C0.650152 32.1865 1.16909 31.5907 1.72074 31.0512C2.22286 30.5722 2.77941 30.149 3.38305 29.8064C3.82981 29.5559 4.30777 29.3571 4.80683 29.2397C5.33769 29.1048 5.89302 29.1229 6.43275 29.1843C7.9287 29.3764 9.35707 29.882 10.8065 30.275C11.379 30.441 11.9759 30.5322 12.5728 30.505C12.6805 30.4943 12.7899 30.4835 12.8924 30.4462C12.9737 30.4172 13.0187 30.3383 13.0716 30.2759C13.3113 30.4517 13.5422 30.6395 13.7761 30.823C14.5458 29.9581 15.6032 29.3498 16.7417 29.1311Z" fill="#28282B"/>
<path d="M4.75803 30.8398C5.10358 30.7132 5.48461 30.7389 5.83688 30.8215C5.79285 31.0585 5.74881 31.2955 5.69805 31.5314C5.41702 31.4534 5.0993 31.4338 4.83999 31.5895C4.36264 31.8718 3.97 32.2736 3.61589 32.6957C3.06851 33.3474 2.56915 34.038 2.07162 34.7283C1.87561 34.587 1.67898 34.446 1.48633 34.3004C1.81873 33.8576 2.13798 33.4052 2.47741 32.9673C2.89666 32.4235 3.32691 31.8812 3.84462 31.4268C4.12167 31.1931 4.41463 30.9662 4.75803 30.8398Z" fill="#28282B"/>
<path d="M20.3471 32.7424C21.5192 33.2489 22.6874 33.7645 23.8463 34.301C24.987 34.8362 26.1273 35.3828 27.1917 36.0611C27.5975 36.3385 28.01 36.6248 28.3161 37.0156C28.4877 37.2303 28.6128 37.4931 28.6167 37.772C28.6201 38.0989 28.4366 38.413 28.1669 38.5919C27.9837 38.7115 27.7767 38.7874 27.57 38.8556C26.8532 39.074 26.1077 39.1782 25.3674 39.2819C23.8815 39.4761 22.3868 39.5936 20.8923 39.7006C19.3848 39.8003 17.8757 39.8798 16.3669 39.9422C15.7822 39.9633 15.1984 39.9939 14.6134 40C14.5127 40.0011 14.3245 39.9238 14.2288 39.8077C14.0541 39.5957 14.1009 39.2501 14.3245 39.0923C14.5049 38.9547 14.748 38.9865 14.9608 38.98C17.8986 38.8706 20.8391 38.7305 23.7671 38.4442C24.5292 38.365 25.2912 38.2791 26.0475 38.1546C26.4517 38.083 26.8575 38.0111 27.2511 37.8916C27.3697 37.8533 27.4899 37.8148 27.5981 37.7512C27.4394 37.5001 27.2012 37.3157 26.9667 37.1401C26.5086 36.8104 26.0202 36.5257 25.5227 36.2602C24.4371 35.6822 23.3191 35.1684 22.1975 34.6649C21.4461 34.3319 20.6963 33.9964 19.9413 33.6725C20.0747 33.3615 20.2129 33.0529 20.3471 32.7424Z" fill="#28282B"/>
<path d="M2.21356 34.8386C2.65421 35.0964 3.1181 35.3362 3.48047 35.7026C3.72083 35.9479 3.85691 36.2749 3.92969 36.6061C3.6982 36.6709 3.46549 36.7299 3.2337 36.7929C3.18416 36.5938 3.13492 36.3816 2.98722 36.2296C2.6692 35.8929 2.23802 35.7005 1.85303 35.4546C1.97749 35.2518 2.09247 35.0432 2.21356 34.8386Z" fill="#28282B"/>
</svg>
