<svg width="32" height="34" viewBox="0 0 32 34" fill="none" xmlns="http://www.w3.org/2000/svg">
<path d="M16 5.375V9.75M16 5.375C16 4.50971 16.2566 3.66385 16.7373 2.94438C17.2181 2.22492 17.9013 1.66416 18.7008 1.33303C19.5002 1.0019 20.3799 0.915256 21.2285 1.08407C22.0772 1.25288 22.8567 1.66956 23.4686 2.28141C24.0805 2.89326 24.4971 3.67282 24.6659 4.52148C24.8348 5.37015 24.7481 6.24982 24.417 7.04924C24.0858 7.84867 23.5251 8.53195 22.8056 9.01268C22.0862 9.49341 21.2403 9.75 20.375 9.75H16M16 5.375C16 4.50971 15.7434 3.66385 15.2627 2.94438C14.782 2.22492 14.0987 1.66416 13.2992 1.33303C12.4998 1.0019 11.6201 0.915256 10.7715 1.08407C9.92282 1.25288 9.14327 1.66956 8.53141 2.28141C7.91956 2.89326 7.50288 3.67282 7.33407 4.52148C7.16526 5.37015 7.2519 6.24982 7.58303 7.04924C7.91416 7.84867 8.47492 8.53195 9.19438 9.01268C9.91385 9.49341 10.7597 9.75 11.625 9.75H16" stroke="black" stroke-width="0.5" stroke-miterlimit="10" stroke-linecap="round"/>
<path d="M28.5 9.74976H3.5C2.11929 9.74976 1 10.869 1 12.2498V15.9998C1 17.3805 2.11929 18.4998 3.5 18.4998H28.5C29.8807 18.4998 31 17.3805 31 15.9998V12.2498C31 10.869 29.8807 9.74976 28.5 9.74976Z" stroke="black" stroke-width="0.5" stroke-linecap="round" stroke-linejoin="round"/>
<path d="M28.5 18.4998V29.7498C28.5 30.7443 28.1049 31.6981 27.4017 32.4014C26.6984 33.1047 25.7446 33.4998 24.75 33.4998H7.25C6.25544 33.4998 5.30161 33.1047 4.59835 32.4014C3.89509 31.6981 3.5 30.7443 3.5 29.7498V18.4998M16 9.74976V33.4998" stroke="black" stroke-width="0.5" stroke-linecap="round" stroke-linejoin="round"/>
</svg>
